<svg width="20" height="20" viewBox="0 0 20 20" fill="none" xmlns="http://www.w3.org/2000/svg">
<path d="M18.125 6.66666C18.125 7.00833 17.8417 7.29166 17.5 7.29166H2.5C2.15833 7.29166 1.875 7.00833 1.875 6.66666C1.875 6.325 2.15833 6.04166 2.5 6.04166H3.35L3.66667 4.53333C3.96667 3.075 4.59167 1.73333 7.075 1.73333H12.925C15.4083 1.73333 16.0333 3.075 16.3333 4.53333L16.65 6.04166H17.5C17.8417 6.04166 18.125 6.325 18.125 6.66666Z" fill="#3C2E2A"/>
<path d="M18.483 11.3833C18.358 10.0083 17.9913 8.54166 15.3163 8.54166H4.683C2.008 8.54166 1.64966 10.0083 1.51633 11.3833L1.04966 16.4583C0.991331 17.0917 1.19966 17.725 1.633 18.2C2.07466 18.6833 2.69966 18.9583 3.36633 18.9583H4.933C6.283 18.9583 6.54133 18.1833 6.708 17.675L6.87466 17.175C7.06633 16.6 7.11633 16.4583 7.86633 16.4583H12.133C12.883 16.4583 12.908 16.5417 13.1247 17.175L13.2913 17.675C13.458 18.1833 13.7163 18.9583 15.0663 18.9583H16.633C17.2913 18.9583 17.9247 18.6833 18.3663 18.2C18.7997 17.725 19.008 17.0917 18.9497 16.4583L18.483 11.3833ZM7.49966 13.125H4.99966C4.658 13.125 4.37466 12.8417 4.37466 12.5C4.37466 12.1583 4.658 11.875 4.99966 11.875H7.49966C7.84133 11.875 8.12466 12.1583 8.12466 12.5C8.12466 12.8417 7.84133 13.125 7.49966 13.125ZM14.9997 13.125H12.4997C12.158 13.125 11.8747 12.8417 11.8747 12.5C11.8747 12.1583 12.158 11.875 12.4997 11.875H14.9997C15.3413 11.875 15.6247 12.1583 15.6247 12.5C15.6247 12.8417 15.3413 13.125 14.9997 13.125Z" fill="#3C2E2A"/>
</svg>
