<svg width="17" height="16" viewBox="0 0 17 16" fill="none" xmlns="http://www.w3.org/2000/svg">
<path d="M11.1366 7.99995C11.1366 9.31995 10.0699 10.3866 8.74995 10.3866C7.42995 10.3866 6.36328 9.31995 6.36328 7.99995C6.36328 6.67995 7.42995 5.61328 8.74995 5.61328C10.0699 5.61328 11.1366 6.67995 11.1366 7.99995Z" stroke="#292D32" stroke-width="1.5" stroke-linecap="round" stroke-linejoin="round"/>
<path d="M8.7499 13.5133C11.1032 13.5133 13.2966 12.1266 14.8232 9.72665C15.4232 8.78665 15.4232 7.20665 14.8232 6.26665C13.2966 3.86665 11.1032 2.47998 8.7499 2.47998C6.39656 2.47998 4.20323 3.86665 2.67656 6.26665C2.07656 7.20665 2.07656 8.78665 2.67656 9.72665C4.20323 12.1266 6.39656 13.5133 8.7499 13.5133Z" stroke="#292D32" stroke-width="1.5" stroke-linecap="round" stroke-linejoin="round"/>
</svg>
