<svg width="17" height="16" viewBox="0 0 17 16" fill="none" xmlns="http://www.w3.org/2000/svg">
<path d="M14.25 3.98665C12.03 3.76665 9.79667 3.65332 7.57 3.65332C6.25 3.65332 4.93 3.71999 3.61 3.85332L2.25 3.98665" stroke="#C70909" stroke-width="1.5" stroke-linecap="round" stroke-linejoin="round"/>
<path d="M5.91699 3.31325L6.06366 2.43992C6.17033 1.80659 6.25033 1.33325 7.37699 1.33325H9.12366C10.2503 1.33325 10.337 1.83325 10.437 2.44659L10.5837 3.31325" stroke="#C70909" stroke-width="1.5" stroke-linecap="round" stroke-linejoin="round"/>
<path d="M12.8169 6.09326L12.3836 12.8066C12.3103 13.8533 12.2503 14.6666 10.3903 14.6666H6.11026C4.25026 14.6666 4.19026 13.8533 4.11693 12.8066L3.68359 6.09326" stroke="#C70909" stroke-width="1.5" stroke-linecap="round" stroke-linejoin="round"/>
<path d="M7.13672 11H9.35672" stroke="#C70909" stroke-width="1.5" stroke-linecap="round" stroke-linejoin="round"/>
<path d="M6.58301 8.33325H9.91634" stroke="#C70909" stroke-width="1.5" stroke-linecap="round" stroke-linejoin="round"/>
</svg>
